<svg width="79" height="79" viewBox="0 0 79 79" fill="none" xmlns="http://www.w3.org/2000/svg">
<path fill-rule="evenodd" clip-rule="evenodd" d="M36.8716 75.1347L33.8846 74.8554L36.4104 47.8412C36.0109 47.7308 35.6242 47.5925 35.2522 47.4285L20.1338 68.5478L17.6944 66.8016L32.7642 45.7501C32.4411 45.4361 32.1432 45.0971 31.8737 44.7366L7.92536 56.3583L6.61559 53.6593L30.5284 42.0548C30.3142 41.3297 30.1949 40.5671 30.1835 39.7827L3.25102 36.9158L3.56858 33.9327L30.6667 36.8172C30.8295 36.3552 31.0306 35.9128 31.266 35.4933L8.75449 19.8241L10.4683 17.3619L33.1805 33.1707C33.5277 32.8758 33.8984 32.6088 34.2889 32.3725L21.821 7.13494L24.5107 5.80618L37.1027 31.2951C37.387 31.2415 37.6758 31.2022 37.9683 31.1778L40.5871 3.1681L43.5741 3.44737L40.9553 31.457C41.5142 31.6113 42.0481 31.8204 42.5516 32.0779L59.6044 8.25625L62.0438 10.0025L44.9399 33.8955C45.1829 34.1599 45.4092 34.4395 45.6171 34.7325L71.3911 22.2248L72.7009 24.9238L46.8953 37.4468C46.9934 37.8123 47.0675 38.1868 47.116 38.5682L75.1641 41.5539L74.8465 44.5371L46.9645 41.5691C46.8863 41.9085 46.788 42.2395 46.6711 42.5608L69.5625 58.4943L67.8487 60.9566L45.155 45.1607C44.9072 45.4512 44.6404 45.7245 44.3567 45.9786L56.4009 70.3586L53.7112 71.6874L41.7928 47.5619C41.0375 47.8594 40.2324 48.0511 39.3973 48.1206L36.8716 75.1347Z" fill="#83A17D"/>
</svg>
